<?xml version="1.0" encoding="UTF-8" standalone="no"?>
<!-- Created with Inkscape (http://www.inkscape.org/) -->

<svg
   width="200.701"
   height="200.52"
   viewBox="0 0 53.102139 53.054251"
   version="1.1"
   id="svg5"
   inkscape:version="1.2.2 (1:1.2.2+202212051552+b0a8486541)"
   sodipodi:docname="JRGreen.svg"
   xmlns:inkscape="http://www.inkscape.org/namespaces/inkscape"
   xmlns:sodipodi="http://sodipodi.sourceforge.net/DTD/sodipodi-0.dtd"
   xmlns="http://www.w3.org/2000/svg"
   xmlns:svg="http://www.w3.org/2000/svg">
  <sodipodi:namedview
     id="namedview7"
     pagecolor="#ffffff"
     bordercolor="#000000"
     borderopacity="0.25"
     inkscape:showpageshadow="2"
     inkscape:pageopacity="0.0"
     inkscape:pagecheckerboard="0"
     inkscape:deskcolor="#d1d1d1"
     inkscape:document-units="mm"
     showgrid="false"
     inkscape:zoom="1.9855336"
     inkscape:cx="80.079228"
     inkscape:cy="116.59334"
     inkscape:window-width="1292"
     inkscape:window-height="704"
     inkscape:window-x="0"
     inkscape:window-y="0"
     inkscape:window-maximized="1"
     inkscape:current-layer="layer1" />
  <defs
     id="defs2" />
  <g
     inkscape:label="Layer 1"
     inkscape:groupmode="layer"
     id="layer1">
    <path
       id="path352"
       style="fill:#f9f9f9;stroke:#00fd00;stroke-width:0.184415;paint-order:markers fill stroke;stroke-opacity:1"
       d="M 3.2726985,4.4144449 3.2675308,6.6758056 5.672552,4.4366658 Z m 3.9077718,0.036173 -3.91604,3.6457723 -0.00723,3.4096103 6.4797075,-7.0316114 z m 3.9553137,0.03669 -7.8822058,8.5539993 -0.00982,4.288627 9.3043413,-12.8297072 z m 2.685625,0.024805 -9.5601404,13.1831746 1.894458,0.03256 8.2733964,-13.2100462 z m 1.824694,0.017053 -8.2790808,13.2188314 2.5109579,0.04289 6.6595419,-13.2534542 z m 2.047421,0.018604 -6.664193,13.2622389 3.639571,0.06201 5.098397,-13.3051306 z m 3.181201,0.029456 -5.101498,13.3133993 1.311031,0.02222 0.07648,4.701005 4.83743,-18.026289 z m 2.195215,0.020671 -5.847705,21.7904007 0.279052,17.102832 -4.838464,-0.112655 -1.870687,6.972185 6.855912,0.01757 7.172172,-45.7543131 z m 2.798795,0.025838 -7.170622,45.7470785 6.475057,0.01654 1.592668,-45.7553463 z m 1.935283,0.01757 -1.592151,45.7486285 4.454508,0.01137 -0.574642,-30.791403 1.481047,7.102926 -1.846916,-22.0534338 z m 2.96416,0.027388 2.545064,30.393493 3.271118,15.690515 4.63951,0.0186 -9.367903,-46.0922767 z m 2.149223,0.020154 1.314648,6.4678222 0.0217,-2.8577067 1.609204,0.014986 L 34.768967,4.7059 Z m 2.938838,0.027388 1.094507,3.6080485 0.896586,0.00827 -1.578198,-3.6126994 z m 1.549776,0.013953 1.578199,3.6132162 2.608626,0.024288 -2.055688,-3.617867 z m 3.331063,0.031006 2.056206,3.617867 1.977657,0.018604 0.304374,3.9966547 3.95428,6.957715 1.821078,0.04703 -0.01189,-3.03134 -8.354012,-11.5905065 z m 3.035474,0.027905 7.059001,9.7942339 -0.01964,-4.9748896 -4.321701,-4.7940229 z m 4.12688,0.038241 2.906282,3.2240926 -0.01292,-3.1972208 z m -3.062862,9.2474974 -3.338298,0.02429 2.235006,5.116483 4.084505,0.10542 z m -4.466911,0.03256 -1.661397,0.0124 11.124902,36.685616 1.050065,0.0041 -9.689331,-31.659049 1.39423,0.03566 z m -2.743502,0.02015 -2.786393,0.02015 7.44399,36.627738 6.463171,0.02584 z M 2.9502375,33.888098 2.8143285,34.158365 2.8375829,48.748689 8.5194067,33.921687 Z m 6.6776286,0.04031 -6.2854044,16.403133 6.3758384,0.01654 1.8768879,-6.994405 -0.40411,-0.0093 0.15968,-9.405627 z" />
  </g>
</svg>
